<?xml version="1.0" encoding="utf-8"?><!DOCTYPE svg PUBLIC "-//W3C//DTD SVG 1.1//EN" "http://www.w3.org/Graphics/SVG/1.1/DTD/svg11.dtd"><svg version="1.1" xmlns="http://www.w3.org/2000/svg" xmlns:xlink="http://www.w3.org/1999/xlink" x="0px" y="0px" width="700px" height="220px" viewBox="0 0 700 220" xml:space="preserve"><g fill="rgb(0,0,0)"><path d="M52.038,48.207c6.35,0,11.529,5.178,11.529,11.527c0,6.351-5.18,11.527-11.529,11.527 c-6.349,0-11.528-5.177-11.528-11.527C40.51,53.385,45.689,48.207,52.038,48.207 M67.773,56.159 c-0.198,9.305-3.312,26.632-10.353,24.645c-7.915-2.235-20.291-8.585-24.592-21.347c0,0-0.254-0.755,0.107-1.464 c7.093-13.919,22.315-18.14,28.925-17.396C65.91,41.054,67.957,47.573,67.773,56.159 M119.463,51.086L78.365,34.199 c0,0-0.736-0.301-0.696-1.096l0.813-15.978c0,0,0.041-0.792,0.836-0.792h25.674c0,0,0.795,0,0.072-0.332L72.285,1.037 c0,0-0.724-0.332-1.373,0.127L50.119,15.873c0,0-0.649,0.461,0.146,0.461h14.383c0,0,0.794,0,0.87,0.791l1.103,11.53 c0,0,0.075,0.792-0.657,0.484l-20.231-8.451c0,0-0.734-0.306-1.092,0.405l-24.26,48.217c0,0-0.357,0.712,0.34,1.098l52.57,29.04 c0,0,0.696,0.386,0.74-0.407c0,0-0.044,0.793,2.891-52.425c0,0,0.045-0.792,0.766-0.456c10.502,4.9,13.08,15.721,13.482,22.32 c0.627,10.283-5.59,33.391-19.972,38.567c0,0-0.749,0.267-1.537,0.161c-31.103-4.146-59.569-22.415-55.927-42.899 c4.348-24.45,17.518-58.29,17.518-58.29s0.289-0.741-0.507-0.741H0.796c0,0-0.796,0-0.796,0.795v79.535c0,0,0,0.797,0.655,1.245 c15.909,10.91,38.546,24.689,53.664,32.734c0,0,0.702,0.374,1.491,0.271c43.02-5.666,61.405-58.771,64.153-67.712 C119.964,52.147,120.198,51.389,119.463,51.086"/><path d="M287.888,96.09c-23.664,0-36.51-16.452-36.51-40.907c0-22.312,11.606-39.441,36.173-39.441 c7.438,0,15.212,1.804,21.974,5.296l-7.437,14.764c-3.493-2.254-8.903-3.719-13.974-3.719c-14.087,0-17.917,9.579-17.917,23.101 c0,21.298,8.112,25.356,18.142,25.356c1.916,0,3.719,0,5.635-0.339c0-1.015,0-6.311,0.226-17.355 c-6.536,0.112-7.776,0.112-8.903,0.112c0-0.335-0.225-14.199-0.225-14.422h26.031v42.71C305.468,94.849,295.776,96.09,287.888,96.09 M226.306,120c12.057-7.55,16.678-13.187,16.678-28.174V44.793l-1.127-1.126l-17.692,0.112c0.114,2.254,0.338,6.691,0.338,9.845 v40.229c0,9.017-1.127,10.707-6.874,14.765v1.576L226.306,120z M155,17.695h18.367c0,1.238,0,17.128-0.338,34.256h0.564 c1.353-3.156,3.268-6.535,4.732-8.562l18.368-25.693h21.186l-25.693,33.579c7.101,12.51,17.242,29.188,25.693,43.726h-21.186 c-3.943-8.115-12.509-22.764-17.129-31.893c-2.14,2.592-4.395,4.96-6.536,7.55c0.227,12.51,0.338,23.329,0.338,24.343H155V17.695z M233.694,37.475c5.501,0,9.963-4.46,9.963-9.963c0-5.502-4.462-9.961-9.963-9.961c-5.503,0-9.964,4.459-9.964,9.961 C223.73,33.015,228.191,37.475,233.694,37.475"/><g transform="translate(332,12)">
<g transform="scale(0.0268) translate(-10,900)">
<path transform="scale(1,-1) translate(0,0)" d="M70 0v685h142c0 -12 0 -169 -2 -310h3c13 26 32 55 44 71l187 239h167l-242 -296c57 -96 162 -260 242 -389h-166c-32 58 -132 221 -173 297c-20 -23 -42 -45 -62 -69c1 -105 2 -219 2 -228h-142z" />
<path transform="scale(1,-1) translate(623,0)" d="M448 0h-112l-10 10l-12 38l-4 1c-43 -39 -91 -62 -150 -62c-107 0 -126 92 -126 146c0 154 132 163 270 171v31c0 44 -29 55 -64 55c-62 0 -119 -20 -153 -33l-31 80v12c91 33 170 40 225 40c99 0 164 -41 164 -148v-226c0 -39 2 -95 3 -115zM306 228l-1 1
c-94 -2 -135 -3 -135 -78c0 -35 9 -68 47 -68c24 0 57 13 87 44c0 6 2 95 2 101z" />
<path transform="scale(1,-1) translate(1121,0)" d="M294 0h-83c-125 0 -134 72 -134 142c0 10 0 140 2 234c-31 -1 -51 -1 -61 -1l1 101c10 0 29 0 60 -1c-1 55 -2 126 -2 135l10 10h132c0 -9 0 -69 -2 -145c35 1 82 1 92 1l-2 -101c-10 0 -55 0 -90 1c1 -91 1 -208 1 -217c0 -50 1 -60 45 -60h39l2 -89z" />
<path transform="scale(1,-1) translate(1459,0)" d="M466 0h-142c0 9 4 306 4 315c0 51 -12 69 -46 69c-25 0 -61 -16 -88 -34l1 -350h-142v582c0 40 -1 100 -3 121l135 4l10 -10v-115c0 -9 -1 -140 -1 -150c45 32 104 56 157 56c67 0 118 -40 118 -142c0 -10 -3 -336 -3 -346z" />
<path transform="scale(1,-1) translate(1984,0)" d="M262 -13c-179 0 -231 140 -231 253c0 140 66 249 231 249c163 0 231 -109 231 -249c0 -113 -55 -253 -231 -253zM262 74c58 0 84 60 84 164c0 79 -14 153 -84 153c-71 0 -84 -74 -84 -153c0 -104 25 -164 84 -164z" />
<path transform="scale(1,-1) translate(2508,0)" d="M195 697v-582c0 -38 2 -95 4 -115h-142c-2 20 -4 77 -4 115v473c0 38 -1 95 -3 115l135 4z" />
<path transform="scale(1,-1) translate(2762,0)" d="M203 0h-142v361c0 29 -2 95 -3 115l135 2l10 -10v-468zM203 554h-142v130l10 10h132v-140z" />
<path transform="scale(1,-1) translate(3023,0)" d="M23 58l42 75c32 -29 78 -55 122 -55c32 0 68 14 68 52c0 42 -49 49 -104 73c-62 27 -114 60 -114 139c0 103 83 147 186 147c56 0 116 -13 159 -41v-12l-40 -79c-28 21 -66 35 -108 35c-37 0 -60 -15 -60 -44c0 -38 44 -46 99 -67c76 -29 122 -61 122 -142
c0 -106 -83 -152 -193 -152c-70 0 -126 19 -179 59v12z" />
<path transform="scale(1,-1) translate(3448,0)" d="M410 47c-44 -38 -90 -60 -162 -60c-153 0 -214 105 -214 255c0 144 72 247 228 247c56 0 111 -17 146 -41v-12l-40 -79c-28 20 -59 32 -89 32c-68 0 -96 -62 -96 -148c0 -93 23 -160 87 -160c37 0 69 23 93 49l47 -71v-12z" />
<path transform="scale(1,-1) translate(3877,0)" d="M466 0h-142c0 9 4 306 4 315c0 51 -12 69 -46 69c-25 0 -61 -16 -88 -34l1 -350h-142v582c0 40 -1 100 -3 121l135 4l10 -10v-115c0 -9 -1 -140 -1 -150c45 32 104 56 157 56c67 0 118 -40 118 -142c0 -10 -3 -336 -3 -346z" />
<path transform="scale(1,-1) translate(4402,0)" d="M439 57c-48 -42 -104 -70 -178 -70c-163 0 -229 113 -229 254c0 139 61 248 222 248c155 0 210 -100 210 -230c0 -15 -4 -42 -10 -58c-38 0 -271 2 -281 2c1 -53 24 -123 104 -123c41 0 75 21 105 53l57 -64v-12zM329 277c0 75 -22 114 -75 114c-49 0 -77 -38 -80 -117
c11 0 150 3 155 3z" />
</g></g><g transform="translate(332,38)">
<g transform="scale(0.0268) translate(-10,900)">
<path transform="scale(1,-1) translate(0,0)" d="M62 -221l-66 76v14c56 39 67 55 67 135v357c0 28 -2 95 -3 115l135 2l10 -10v-450c0 -127 -38 -175 -143 -239zM205 554h-142v130l10 10h132v-140z" />
<path transform="scale(1,-1) translate(263,0)" d="M477 0h-112l-10 10l-12 40l-4 1c-53 -50 -108 -64 -163 -64c-73 0 -126 40 -126 142c0 10 3 337 3 347h132l10 -10c0 -11 -3 -298 -3 -311c0 -36 12 -70 48 -70c30 0 70 20 94 45l-2 346h132l10 -10v-351c0 -39 2 -95 3 -115z" />
<path transform="scale(1,-1) translate(792,0)" d="M468 0h-142c0 9 4 306 4 315c0 51 -12 69 -46 69c-25 0 -61 -16 -88 -34l1 -350h-142v353c0 35 -2 102 -3 123l118 3l11 -10l7 -39l2 -1c45 33 110 59 163 59c67 0 118 -40 118 -142c0 -10 -3 -336 -3 -346z" />
<path transform="scale(1,-1) translate(1319,0)" d="M481 476c-1 -10 -3 -61 -3 -91v-405c0 -138 -104 -196 -218 -196c-64 0 -133 17 -187 49l36 89h12c36 -24 81 -40 124 -40c59 0 92 30 92 82c0 8 3 54 5 82l-4 2c-34 -31 -75 -60 -131 -60c-137 0 -170 125 -170 253c0 125 51 248 173 248c54 0 97 -24 133 -57l3 2l10 35
l11 10zM336 135c0 10 2 199 2 210c-22 25 -52 40 -79 40c-67 0 -75 -90 -75 -144c0 -59 3 -158 66 -158c28 0 63 23 86 52z" />
<path transform="scale(1,-1) translate(1852,0)" d="M439 57c-48 -42 -104 -70 -178 -70c-163 0 -229 113 -229 254c0 139 61 248 222 248c155 0 210 -100 210 -230c0 -15 -4 -42 -10 -58c-38 0 -271 2 -281 2c1 -53 24 -123 104 -123c41 0 75 21 105 53l57 -64v-12zM329 277c0 75 -22 114 -75 114c-49 0 -77 -38 -80 -117
c11 0 150 3 155 3z" />
<path transform="scale(1,-1) translate(2556,0)" d="M561 30c-48 -29 -129 -39 -198 -39c-213 0 -327 145 -327 361c0 197 102 350 317 350c66 0 133 -16 193 -47l-57 -114c-34 21 -87 34 -135 34c-132 0 -172 -95 -172 -223c0 -183 72 -242 185 -242c21 0 41 1 60 6c0 9 0 70 2 178c-65 -1 -78 -1 -88 -1c0 2 -1 112 -1 113
h221v-376z" />
<path transform="scale(1,-1) translate(3182,0)" d="M439 57c-48 -42 -104 -70 -178 -70c-163 0 -229 113 -229 254c0 139 61 248 222 248c155 0 210 -100 210 -230c0 -15 -4 -42 -10 -58c-38 0 -271 2 -281 2c1 -53 24 -123 104 -123c41 0 75 21 105 53l57 -64v-12zM329 277c0 75 -22 114 -75 114c-49 0 -77 -38 -80 -117
c11 0 150 3 155 3z" />
<path transform="scale(1,-1) translate(3636,0)" d="M717 0h-142c0 9 4 306 4 315c0 50 -13 69 -44 69c-23 0 -55 -13 -80 -33v-351h-138c0 9 2 306 2 315c0 50 -12 69 -41 69c-24 0 -57 -14 -82 -34l1 -350h-142v353c0 34 -2 102 -3 123l118 3l11 -10l7 -39l2 -1c43 35 103 59 154 59c40 0 78 -18 97 -61
c49 38 112 61 163 61c65 0 116 -40 116 -142c0 -10 -3 -336 -3 -346z" />
<path transform="scale(1,-1) translate(4412,0)" d="M439 57c-48 -42 -104 -70 -178 -70c-163 0 -229 113 -229 254c0 139 61 248 222 248c155 0 210 -100 210 -230c0 -15 -4 -42 -10 -58c-38 0 -271 2 -281 2c1 -53 24 -123 104 -123c41 0 75 21 105 53l57 -64v-12zM329 277c0 75 -22 114 -75 114c-49 0 -77 -38 -80 -117
c11 0 150 3 155 3z" />
<path transform="scale(1,-1) translate(4906,0)" d="M203 0h-142v361c0 29 -2 95 -3 115l135 2l10 -10v-468zM203 554h-142v130l10 10h132v-140z" />
<path transform="scale(1,-1) translate(5167,0)" d="M468 0h-142c0 9 4 306 4 315c0 51 -12 69 -46 69c-25 0 -61 -16 -88 -34l1 -350h-142v353c0 35 -2 102 -3 123l118 3l11 -10l7 -39l2 -1c45 33 110 59 163 59c67 0 118 -40 118 -142c0 -10 -3 -336 -3 -346z" />
<path transform="scale(1,-1) translate(5694,0)" d="M481 0h-112l-10 10l-13 38l-4 1c-37 -31 -79 -61 -135 -61c-137 0 -170 125 -170 253c0 125 51 248 173 248c54 0 97 -24 126 -51l2 1c-1 39 -2 139 -2 149c0 38 -2 95 -4 115l136 4l10 -10v-582c0 -39 2 -95 3 -115zM336 135c0 10 2 199 2 210c-22 25 -52 40 -79 40
c-67 0 -75 -90 -75 -144c0 -59 3 -158 66 -158c28 0 63 23 86 52z" />
<path transform="scale(1,-1) translate(6225,0)" d="M439 57c-48 -42 -104 -70 -178 -70c-163 0 -229 113 -229 254c0 139 61 248 222 248c155 0 210 -100 210 -230c0 -15 -4 -42 -10 -58c-38 0 -271 2 -281 2c1 -53 24 -123 104 -123c41 0 75 21 105 53l57 -64v-12zM329 277c0 75 -22 114 -75 114c-49 0 -77 -38 -80 -117
c11 0 150 3 155 3z" />
</g></g><g transform="translate(332,70)">
<g transform="scale(0.0268) translate(-10,900)">
<path transform="scale(1,-1) translate(0,0)" d="M54 -144l-53 104l19 9c57 27 79 43 80 128c0 18 -4 204 -4 225v363h142v-587c0 -117 -26 -174 -133 -220z" />
<path transform="scale(1,-1) translate(308,0)" d="M439 57c-48 -42 -104 -70 -178 -70c-163 0 -229 113 -229 254c0 139 61 248 222 248c155 0 210 -100 210 -230c0 -15 -4 -42 -10 -58c-38 0 -271 2 -281 2c1 -53 24 -123 104 -123c41 0 75 21 105 53l57 -64v-12zM329 277c0 75 -22 114 -75 114c-49 0 -77 -38 -80 -117
c11 0 150 3 155 3z" />
<path transform="scale(1,-1) translate(802,0)" d="M162 0h-112c1 20 3 77 3 115v473c0 38 -1 95 -3 115l135 4l10 -10c0 -24 0 -191 -2 -258l2 -1c32 25 72 51 130 51c130 0 169 -109 169 -232c0 -130 -32 -269 -172 -269c-50 0 -96 26 -134 59l-4 -1l-12 -36zM195 136c23 -30 58 -53 85 -53c65 0 67 97 67 161
c0 62 -5 141 -71 141c-27 0 -61 -16 -83 -40c0 -20 2 -200 2 -209z" />
<path transform="scale(1,-1) translate(1333,0)" d="M439 57c-48 -42 -104 -70 -178 -70c-163 0 -229 113 -229 254c0 139 61 248 222 248c155 0 210 -100 210 -230c0 -15 -4 -42 -10 -58c-38 0 -271 2 -281 2c1 -53 24 -123 104 -123c41 0 75 21 105 53l57 -64v-12zM329 277c0 75 -22 114 -75 114c-49 0 -77 -38 -80 -117
c11 0 150 3 155 3z" />
<path transform="scale(1,-1) translate(1787,0)" d="M468 0h-142c0 9 4 306 4 315c0 51 -12 69 -46 69c-25 0 -61 -16 -88 -34l1 -350h-142v353c0 35 -2 102 -3 123l118 3l11 -10l7 -39l2 -1c45 33 110 59 163 59c67 0 118 -40 118 -142c0 -10 -3 -336 -3 -346z" />
<path transform="scale(1,-1) translate(2314,0)" d="M466 0h-142c0 9 4 306 4 315c0 51 -12 69 -46 69c-25 0 -61 -16 -88 -34l1 -350h-142v582c0 40 -1 100 -3 121l135 4l10 -10v-115c0 -9 -1 -140 -1 -150c45 32 104 56 157 56c67 0 118 -40 118 -142c0 -10 -3 -336 -3 -346z" />
<path transform="scale(1,-1) translate(2839,0)" d="M448 0h-112l-10 10l-12 38l-4 1c-43 -39 -91 -62 -150 -62c-107 0 -126 92 -126 146c0 154 132 163 270 171v31c0 44 -29 55 -64 55c-62 0 -119 -20 -153 -33l-31 80v12c91 33 170 40 225 40c99 0 164 -41 164 -148v-226c0 -39 2 -95 3 -115zM306 228l-1 1
c-94 -2 -135 -3 -135 -78c0 -35 9 -68 47 -68c24 0 57 13 87 44c0 6 2 95 2 101z" />
<path transform="scale(1,-1) translate(3337,0)" d="M477 0h-112l-10 10l-12 40l-4 1c-53 -50 -108 -64 -163 -64c-73 0 -126 40 -126 142c0 10 3 337 3 347h132l10 -10c0 -11 -3 -298 -3 -311c0 -36 12 -70 48 -70c30 0 70 20 94 45l-2 346h132l10 -10v-351c0 -39 2 -95 3 -115z" />
<path transform="scale(1,-1) translate(3866,0)" d="M23 58l42 75c32 -29 78 -55 122 -55c32 0 68 14 68 52c0 42 -49 49 -104 73c-62 27 -114 60 -114 139c0 103 83 147 186 147c56 0 116 -13 159 -41v-12l-40 -79c-28 21 -66 35 -108 35c-37 0 -60 -15 -60 -44c0 -38 44 -46 99 -67c76 -29 122 -61 122 -142
c0 -106 -83 -152 -193 -152c-70 0 -126 19 -179 59v12z" />
<path transform="scale(1,-1) translate(4291,0)" d="M439 57c-48 -42 -104 -70 -178 -70c-163 0 -229 113 -229 254c0 139 61 248 222 248c155 0 210 -100 210 -230c0 -15 -4 -42 -10 -58c-38 0 -271 2 -281 2c1 -53 24 -123 104 -123c41 0 75 21 105 53l57 -64v-12zM329 277c0 75 -22 114 -75 114c-49 0 -77 -38 -80 -117
c11 0 150 3 155 3z" />
<path transform="scale(1,-1) translate(4745,0)" d="M468 0h-142c0 9 4 306 4 315c0 51 -12 69 -46 69c-25 0 -61 -16 -88 -34l1 -350h-142v353c0 35 -2 102 -3 123l118 3l11 -10l7 -39l2 -1c45 33 110 59 163 59c67 0 118 -40 118 -142c0 -10 -3 -336 -3 -346z" />
</g></g></g></svg>